<svg width="280" height="188" viewBox="0 0 280 188" fill="none" xmlns="http://www.w3.org/2000/svg">
<path d="M115.206 46.0165C112.819 45.707 91.6263 45.707 87.8241 46.0165C87.759 46.0307 87.7016 46.0689 87.6633 46.1235C87.6251 46.1781 87.6088 46.2451 87.6178 46.3112C87.6313 46.3605 87.6574 46.4055 87.6936 46.4417C87.7298 46.4779 87.7748 46.504 87.8241 46.5175C91.2432 46.8123 112.774 46.9449 115.132 46.6354C115.471 46.606 115.575 46.0607 115.206 46.0165ZM214.757 82.8893C214.462 82.8893 210.675 84.2304 211.677 84.7757L212.738 85.66C212.502 86.1905 214.816 88.6074 213.224 94.2961C212.561 93.8392 212.546 94.2961 212.635 94.4434C215.096 96.9783 232.678 111.052 236.598 113.602C236.951 114.118 239.192 113.013 239.545 112.895C247.332 109.575 254.932 105.836 262.314 101.694C265.011 100.22 264.982 94.9298 261.71 92.8518C258.269 90.5632 254.685 88.4958 250.981 86.6621L255.55 83.0809C255.874 82.8304 255.697 81.9019 254.459 82.9041C251.794 78.5967 250.715 73.494 251.409 68.4762C251.586 68.373 253.56 67.194 252.691 66.8109C248.27 64.9687 233.621 59.5896 229.111 59.3096C227.637 59.2064 215.848 68.6383 214.742 70.5394C212.384 74.4743 213.106 78.9692 214.831 82.9335L214.757 82.8893ZM213.578 94.5171C215.052 92.9107 214.595 88.5043 213.888 86.5589C215.907 88.18 232.132 100.412 237.29 103.684C240.076 109.579 236.966 112.438 237.069 112.88C228.433 106.882 221.404 100.029 213.578 94.5171V94.5171ZM261.607 93.8539C264.068 95.1214 263.508 100.397 261.74 101.016C253.723 105.305 245.794 109.166 237.511 112.806C238.599 111.339 239.193 109.563 239.206 107.737L250.554 103.08C250.76 102.976 250.554 102.696 250.392 102.741C246.582 104.014 242.851 105.515 239.221 107.235C239.192 105.803 238.747 104.41 237.939 103.227C241.402 101.856 259.102 92.6749 261.607 93.8539V93.8539ZM237.04 78.8808C241.376 75.2905 245.913 71.9495 250.628 68.8741C250.284 70.6661 250.219 72.5005 250.436 74.3122C249.714 74.548 240.783 81.0914 240.326 81.4451C240.135 81.5924 240.326 81.9019 240.562 81.784L250.539 75.0049C250.849 77.0828 252.101 81.8135 254.032 83.0957C252.072 84.6873 242.375 92.3655 240.017 92.3655C238.249 90.66 237.026 88.4693 236.501 86.0695C235.976 83.6697 236.174 81.1683 237.069 78.8808H237.04ZM235.109 66.1624C236.141 67.0467 231.867 69.5373 231.705 69.5815C231.219 69.7289 230.894 69.2278 231.941 68.2257C232.471 67.7688 234.417 65.6171 235.109 66.1772V66.1624ZM227.077 68.6236C227.814 67.1498 230.88 64.7034 232.177 63.8192C232.24 63.7747 232.312 63.7432 232.388 63.7265C232.465 63.7098 232.543 63.7083 232.62 63.722C232.696 63.7356 232.77 63.7643 232.835 63.8063C232.901 63.8482 232.957 63.9027 233.002 63.9666C233.046 64.0304 233.078 64.1024 233.095 64.1785C233.111 64.2545 233.113 64.3331 233.099 64.4097C233.085 64.4864 233.057 64.5596 233.015 64.6251C232.973 64.6907 232.918 64.7473 232.854 64.7919C231.705 65.6761 228.581 68.6088 227.711 69.2131C227.646 69.2492 227.572 69.2681 227.497 69.2681C227.423 69.2681 227.349 69.2492 227.284 69.2131C227.232 69.1893 227.186 69.1555 227.147 69.1136C227.109 69.0717 227.079 69.0226 227.06 68.969C227.041 68.9155 227.032 68.8587 227.035 68.8019C227.038 68.7451 227.053 68.6895 227.077 68.6383V68.6236ZM216.26 71.1731C222.583 72.8887 228.794 74.9902 234.859 77.466C235.242 77.6576 235.109 78.306 234.652 78.2176C228.334 76.4571 222.128 74.3163 216.069 71.8068C216.001 71.7691 215.949 71.7095 215.92 71.6379C215.891 71.5663 215.887 71.4869 215.91 71.413C215.932 71.3391 215.979 71.275 216.043 71.2314C216.107 71.1878 216.183 71.1672 216.26 71.1731ZM215.17 83.5967C222.199 87.5611 235.286 92.6013 240.223 93.3381C241.211 93.4855 249.228 87.8558 250.539 86.8979C251.394 87.7379 258.512 91.7612 260.325 92.8813C257.702 93.0139 238.661 101.886 237.29 102.755C229.111 96.6393 220.622 90.4349 212.237 84.6136L215.184 83.5967H215.17ZM115.206 46.0165H115.221H115.206ZM139.14 17.9271C139.05 17.8902 138.949 17.8902 138.86 17.9271C137.99 18.4576 132.965 25.2957 131.948 26.5779C130.975 25.2515 129.988 23.9399 129 22.6577C128.809 22.4219 128.411 22.6577 128.558 22.9672C129.546 24.5441 130.607 26.0621 131.682 27.58C131.859 27.8158 132.198 27.6979 132.346 27.5063C133.274 26.3273 139.184 19.1945 139.434 18.3839C139.445 18.3346 139.446 18.2835 139.437 18.2338C139.428 18.1841 139.409 18.1366 139.382 18.0942C139.355 18.0517 139.319 18.0151 139.278 17.9864C139.236 17.9577 139.189 17.9375 139.14 17.9271V17.9271ZM111.035 48.8755C102.193 49.0524 92.3927 48.8755 88.5904 49.1997C88.5123 49.1997 88.4373 49.2308 88.382 49.2861C88.3268 49.3413 88.2957 49.4163 88.2957 49.4945C88.2957 49.5726 88.3268 49.6476 88.382 49.7029C88.4373 49.7582 88.5123 49.7892 88.5904 49.7892C93.159 49.7892 107.381 50.2608 111.035 49.4797C111.345 49.4061 111.286 48.9639 111.035 48.8755V48.8755ZM111.36 34.0645C111.654 34.0645 111.743 33.5634 111.36 33.5192C108.412 33.0771 90.7274 33.9466 86.4388 34.6097C86.3606 34.6097 86.2856 34.6408 86.2304 34.6961C86.1751 34.7513 86.144 34.8263 86.144 34.9045C86.144 34.9827 86.1751 35.0576 86.2304 35.1129C86.2856 35.1682 86.3606 35.1992 86.4388 35.1992C92.2158 35.1992 105.347 34.3003 111.286 34.0939L111.36 34.0645ZM105.494 37.0119C105.745 37.0119 105.877 36.5109 105.494 36.4224C104.02 36.054 89.2831 36.4224 87.0578 36.673C87.0227 36.6783 86.9891 36.6906 86.9589 36.7092C86.9287 36.7278 86.9025 36.7522 86.8819 36.781C86.8613 36.8099 86.8466 36.8426 86.8389 36.8772C86.8311 36.9118 86.8304 36.9476 86.8367 36.9825C86.8447 37.0398 86.8702 37.0932 86.9098 37.1355C86.9494 37.1777 87.0011 37.2066 87.0578 37.2183C89.9021 37.3804 103.755 37.4835 105.494 37.0119ZM136.914 45.1175C137.725 43.9385 128.838 44.3659 128.455 44.7638C128.072 45.1617 128.455 51.2188 128.455 51.7788C128.455 52.6483 136.693 52.6335 137.017 52.383C137.385 49.985 137.385 47.545 137.017 45.147L136.914 45.1175ZM136.281 51.7198C135.499 51.7198 129.708 51.823 129.236 51.4545C129.236 49.3766 129.103 47.3133 129.03 45.2501H136.398C136.133 47.3966 136.094 49.5651 136.281 51.7198V51.7198Z" fill="url(#paint0_linear_166_1651)"/>
<path d="M240.813 86.073C242.876 84.8498 244.983 83.656 246.973 82.3297C247.253 82.1381 246.973 81.637 246.649 81.8139L240.592 85.734C240.558 85.7674 240.536 85.8115 240.531 85.859C240.526 85.9064 240.537 85.9542 240.563 85.9941C240.589 86.0341 240.628 86.0638 240.674 86.0782C240.719 86.0925 240.768 86.0907 240.813 86.073ZM225.957 102.255C225.781 102.137 225.545 102.417 225.722 102.564C227.195 103.846 234.446 108.916 236.038 110.036C236.244 110.183 236.421 109.844 236.229 109.697C233.135 107.339 229.244 104.229 225.957 102.255V102.255ZM130.489 39.9892C131.255 39.9892 137.253 40.6819 137.194 39.6945C137.135 38.7071 137.047 33.0332 136.664 32.8564C136.561 31.8689 129.089 32.5911 128.396 32.7237C127.969 32.7237 128.146 38.4713 128.175 39.1639C128.219 40.1661 129.826 39.9598 130.489 39.9892V39.9892ZM136.281 33.1953V39.3997C133.798 39.1443 131.299 39.095 128.809 39.2524C128.906 37.233 128.867 35.2093 128.691 33.1953C129.914 33.1953 135.499 33.3869 136.281 33.1953V33.1953ZM235.714 107.206C235.751 107.238 235.798 107.255 235.846 107.255C235.895 107.255 235.942 107.238 235.979 107.206C236.008 107.174 236.024 107.132 236.024 107.088C236.024 107.045 236.008 107.003 235.979 106.971C229.229 102.181 222.524 96.4186 215.892 91.9237C215.7 91.7763 215.405 92.0563 215.597 92.2479C219.311 95.7849 230.909 104.038 235.773 107.28L235.714 107.206ZM254.592 98.7471H254.622H254.592ZM137.165 23.1592C137.144 23.0933 137.099 23.0381 137.039 23.0051C136.978 22.972 136.907 22.9639 136.841 22.9823C136.796 22.9928 136.755 23.0146 136.722 23.0456C136.688 23.0766 136.663 23.1157 136.649 23.1592V28.3172H128.485C128.341 25.9422 128.076 23.5762 127.689 21.2286C129.994 21.3356 132.304 21.2765 134.601 21.0517C134.652 21.0351 134.697 21.001 134.726 20.9554C134.756 20.9097 134.769 20.8552 134.763 20.8012C134.754 20.7698 134.739 20.7406 134.719 20.7152C134.699 20.6898 134.673 20.6689 134.645 20.6538C134.099 20.477 127.276 19.8875 127.482 21.0665C126.804 21.0665 127.792 28.4351 127.792 28.4351C128.146 29.3341 129.634 29.0246 130.415 29.0246C131.196 29.0246 136.62 29.1573 137.062 29.0246C137.769 28.7446 137.371 24.0287 137.209 23.1297L137.165 23.1592Z" fill="url(#paint1_linear_166_1651)"/>
<path d="M279.573 156.856C260.797 158.005 242.017 158.988 223.232 159.803C222.986 157.116 222.493 154.457 221.758 151.86C240.425 151.369 259.093 150.794 277.76 150.136C277.855 150.124 277.944 150.082 278.013 150.015C278.082 149.949 278.128 149.862 278.143 149.767C278.156 149.652 278.123 149.537 278.051 149.446C277.979 149.355 277.875 149.296 277.76 149.281C259.014 149.978 240.273 150.553 221.537 151.005C217.116 135.59 207.787 120.926 196.911 109.313C196.572 105.393 196.557 103.418 194.877 99.4833C191.635 92.0409 188.054 90.4935 188.142 92.262C188.141 92.7278 188.216 93.1907 188.363 93.6326C187.774 92.8957 183.441 88.3861 182.557 90.8177C181.905 90.4075 181.169 90.1495 180.403 90.0628C179.638 89.976 178.863 90.0628 178.135 90.3167C175.38 85.8954 170.767 85.8954 167.819 84.4217C162.19 81.4742 164.783 72.0718 168.925 68.5643C168.925 68.5643 186.713 68.2254 186.727 68.0043C187.052 63.8336 190.603 0.359792 190.603 0.359792C146.774 -0.509713 99.6148 0.359789 56.1101 1.24403C55.8154 1.24403 55.5648 1.43562 55.5943 1.70089C58.2176 24.028 64.6578 69.7286 64.6578 69.7286C65.7189 70.1559 162.057 68.6527 167.819 68.5643C165.355 71.2522 164.006 74.7773 164.047 78.4236C164.341 87.7081 171.725 83.7585 177.767 90.5524C173.847 92.2325 173.346 97.199 174.82 100.751C175.087 101.432 175.45 102.072 175.895 102.652C175.957 104.037 176.351 105.386 177.045 106.587C178.931 110.168 182.291 111.406 182.468 111.936C182.468 120.278 184.222 130.446 185.887 138.582C180.272 135.634 163.619 128.604 146.494 128.103C147.467 119.659 154.762 118.598 153.76 112.953C156.811 112.835 159.861 112.717 162.912 112.57C163.678 112.57 162.838 110.212 162.75 109.814C161.512 104.361 160.269 98.9184 159.021 93.4852C158.83 92.7483 157.975 87.7966 157.253 87.7966L147.747 87.9734C145.654 85.9839 140.747 85.247 138.743 87.5608C135.795 81.8869 126.687 82.7122 126.393 88.2239C123.902 86.5291 120.203 86.1902 117.948 88.4892C117.712 88.5924 73.1318 89.1966 66.5 89.4619H66.3821C66.3104 89.5074 66.2595 89.5792 66.2402 89.6619C66.2209 89.7445 66.2348 89.8315 66.2789 89.904C66.3968 90.6704 62.5504 108.856 62.0935 113.233C62.0935 113.852 68.7695 113.764 69.4622 113.764C59.9418 124.92 51.3794 137.506 48.8299 152.228C32.7662 151.978 16.7024 151.58 0.638702 151.639C0.56053 151.639 0.48556 151.67 0.430284 151.725C0.375008 151.78 0.343955 151.855 0.343955 151.934C0.343955 152.012 0.375008 152.087 0.430284 152.142C0.48556 152.197 0.56053 152.228 0.638702 152.228C16.6287 152.921 32.663 152.995 48.6678 153.113C48.191 156.035 47.9936 158.995 48.0783 161.955C32.1619 161.631 16.2456 161.13 0.343955 160.864C-0.00974191 160.864 -0.0686914 161.424 0.343955 161.424C16.2603 162.235 32.2061 162.53 48.152 162.766C48.5646 170.768 51.7184 180.583 59.5587 184.179C62.7862 190.516 69.6243 196.219 77.2435 194.583C77.0224 195.733 76.8161 196.912 76.5951 198.091C76.5066 198.622 77.3025 198.843 77.3909 198.312C79.5573 186.64 81.8121 174.909 85.5996 163.65C85.7175 163.296 85.1869 163.163 85.0543 163.502C81.37 173.288 79.292 183.575 77.3761 193.817C69.5801 194.952 63.3609 189.985 60.1334 183.265C58.397 179.714 57.3926 175.85 57.1799 171.903C56.9673 167.956 57.5507 164.007 58.8955 160.29C62.9188 149.974 73.6329 142.605 84.1553 137.565C94.8543 132.494 106.344 129.299 118.125 128.118C118.965 135.988 128.014 138.655 134.911 138.243C141.808 137.83 145.89 135.722 146.48 128.766C146.568 128.766 171.371 129.312 192.784 143.622C199.077 147.822 204.795 153.216 208.141 160.069C211.412 166.686 212.562 174.806 209.614 181.703C205.4 191.754 197.707 193.213 192.608 194.112C190.805 183.321 187.324 172.878 182.291 163.163C182.159 162.913 181.746 163.075 181.879 163.34C187.127 174.657 190.706 186.675 192.504 199.019C192.504 199.403 193.271 199.506 193.271 199.019C193.211 197.67 193.034 196.329 192.74 195.011C198.298 194.533 203.444 191.886 207.065 187.642C218.855 184.695 223.998 171.947 223.276 160.717C242.101 159.951 260.905 158.968 279.691 157.77C280.206 157.578 280.015 156.856 279.573 156.856V156.856ZM64.7167 60.4145C61.7693 41.6686 59.426 23.0111 56.7586 4.25045C100.971 3.48411 146.332 3.80833 189.94 3.07147L186.536 58.3513C168.129 58.9113 67.0895 59.4861 64.7167 60.4145ZM153.583 112.128C153.313 111.342 152.796 110.665 152.109 110.197C152.873 108.982 153.286 107.58 153.303 106.145H154.099L155.204 112.04L153.583 112.128ZM152.345 101.325C152.597 101.122 152.829 100.895 153.038 100.648C153.391 102.224 153.686 103.801 153.981 105.378H153.274C153.346 103.967 153.024 102.564 152.345 101.325V101.325ZM162.425 111.745L155.646 112.04C155.469 110.05 155.086 108.09 154.733 106.145C156.851 106.215 158.972 106.161 161.084 105.982C161.526 107.884 161.983 109.829 162.425 111.745ZM160.952 105.305H154.615L153.554 99.778L159.67 99.6012L160.952 105.305ZM159.478 98.9675L153.716 99.1443C153.826 98.4454 153.777 97.7305 153.57 97.0538C153.363 96.3771 153.005 95.7564 152.522 95.2389C152.434 94.7968 152.345 94.34 152.227 93.8831L158.299 93.7505L159.478 98.9675ZM157.223 88.445C157.547 89.9187 157.842 91.4956 158.137 93.0283L152.08 93.1315C151.77 91.582 151.372 90.0517 150.886 88.5482L157.223 88.445ZM151.652 94.6937C150.935 94.3675 150.124 94.31 149.368 94.5315C149.436 94.349 149.49 94.1619 149.53 93.9715H151.476L151.652 94.6937ZM150.179 88.5629C150.455 90.1101 150.819 91.6404 151.269 93.1462H149.633C149.802 91.5135 149.35 89.877 148.366 88.5629H150.179ZM114.5 89.1966H117.344C116.743 90.1251 116.531 91.2525 116.754 92.3357L114.249 93.0578C114.367 91.7904 114.5 90.3756 114.5 89.1966V89.1966ZM113.704 89.1966V93.3083C113.454 93.4568 113.213 93.6191 112.982 93.7947L106.011 93.9126C106.075 92.3836 106.031 90.8519 105.878 89.3292L113.704 89.1966ZM110.609 99.8812H105.967V94.7231L112.009 94.62C111.37 95.3198 110.909 96.1634 110.665 97.0793C110.421 97.9951 110.402 98.9563 110.609 99.8812V99.8812ZM105.996 106.705H110.019C110.076 107.99 110.552 109.222 111.375 110.212C110.889 110.548 110.498 111.005 110.24 111.537C109.981 112.068 109.865 112.658 109.901 113.248H105.922C105.967 111.037 105.996 108.871 105.996 106.705ZM110.417 104.921C110.288 105.229 110.194 105.55 110.137 105.879H106.07V100.559H110.83C111.15 101.439 111.725 102.203 112.481 102.755C111.56 103.232 110.816 103.991 110.358 104.921H110.417ZM105.48 113.233H87.2207C87.4123 110.698 87.2207 109.107 88.8565 106.926L105.318 106.734C105.303 108.9 105.348 111.067 105.421 113.233H105.48ZM89.4608 106.115C90.9943 104.565 92.1537 102.685 92.8504 100.618H96.5347V106.027L89.4608 106.115ZM97.4779 89.4914L105.2 89.3587C105.117 90.8854 105.117 92.4154 105.2 93.942L97.4337 94.0747C97.4337 92.5567 97.4484 91.024 97.4779 89.4914ZM97.3747 94.8852L105.171 94.7526V99.9107H97.2716C97.2716 98.2306 97.2716 96.5653 97.3747 94.8852V94.8852ZM97.2716 100.603H105.244V105.924L96.9474 106.027C97.0653 104.214 97.1537 102.46 97.2716 100.603V100.603ZM89.9029 89.624L96.9621 89.5061L96.8 94.0894L89.6082 94.2073C89.7832 92.6862 89.8374 91.1537 89.7703 89.624H89.9029ZM89.5492 95.0031L96.7852 94.8852L96.6526 99.8959H93.042C93.2188 99.0854 93.543 97.759 92.5851 97.3169C91.6272 96.8748 90.7135 99.0854 88.945 99.8812C89.1071 98.2601 89.2545 96.639 89.4166 95.0179L89.5492 95.0031ZM83.2416 89.7419L89.3281 89.6387C89.1176 91.1587 88.9847 92.6885 88.9302 94.2221H88.4292C89.0629 92.6746 85.6438 91.6725 82.6963 94.2221C82.7405 93.4705 83.1532 90.243 83.109 89.7419H83.2416ZM88.7386 95.0916C88.6355 96.6979 88.5471 98.2896 88.4439 99.8959H86.1449C85.7028 98.599 86.1449 95.5484 87.3239 95.0916H88.7092H88.7386ZM82.3574 89.7861L82.1216 94.3547H79.3657C78.2751 92.0851 78.9678 90.3609 77.8919 89.8156L82.3574 89.7861ZM81.7679 95.18C81.4281 95.6056 81.1411 96.0707 80.9131 96.5653L79.8225 95.2242L81.7679 95.18ZM72.3507 89.9777L77.0814 89.8893C75.6077 90.5967 75.3866 93.102 75.3866 94.4726H73.1613C72.4097 93.8241 72.0854 94.4726 71.5254 94.4726L72.3212 89.8893L72.3507 89.9777ZM75.6224 97.4643C74.8046 96.9187 74.14 96.1729 73.6918 95.2979H75.3571C75.3747 96.024 75.4436 96.7479 75.5634 97.4643H75.6224ZM70.7443 99.6749L71.4517 95.3421C71.304 96.838 71.4902 98.3481 71.997 99.7633L70.7443 99.6749ZM72.2181 100.397C72.8223 102.416 73.6918 104.258 74.1044 106.292L69.6832 106.38L70.5675 100.382L72.2181 100.397ZM66.8684 89.9924H71.7023C71.4223 91.4662 71.157 93.0578 70.8917 94.6052C69.2853 94.6052 67.6642 94.6936 66.0578 94.7673C66.4049 93.1924 66.6559 91.5978 66.8095 89.9924H66.8684ZM65.9547 95.3716H70.7443C70.5233 96.8453 70.2875 98.319 70.0517 99.6896H65.1147C65.3652 98.2159 65.6305 96.7864 65.8957 95.3716H65.9547ZM65.0557 100.205C66.6768 100.294 68.2979 100.338 69.919 100.368C69.639 102.357 69.3148 104.376 69.0495 106.38C67.3253 106.38 65.601 106.498 63.8767 106.572C64.2746 104.45 64.6578 102.328 65.0557 100.205V100.205ZM68.3716 112.983H62.683C63.0514 111.008 63.4346 109.048 63.8325 107.088L68.9464 107.22C68.6355 109.129 68.424 111.052 68.3127 112.983H68.3716ZM68.7843 112.983L69.6538 107.088H74.2371C74.2813 107.48 74.2813 107.875 74.2371 108.267L70.0959 112.997L68.7843 112.983ZM58.7481 158.271C57.0244 162.198 56.1627 166.45 56.2212 170.738C56.2796 175.027 57.2569 179.253 59.0871 183.133C44.8213 173.494 47.8572 152.184 53.929 138.567C58.8955 127.411 66.7652 117.934 74.8266 108.842C76.0056 107.5 72.1886 98.5254 72.056 96.3295C71.9675 94.6936 72.6455 94.3547 73.2497 95.5189C73.8539 96.6832 74.7234 98.0095 75.9171 98.2896C76.3887 99.6749 76.7572 99.2328 76.6982 99.0117C76.1972 96.58 75.3276 93.1168 76.9488 90.8767C78.1277 89.3145 78.0835 92.1883 78.2014 92.7483C78.4814 94.0894 79.6752 96.6832 80.751 97.1695C80.3826 98.2159 81.0015 97.8474 81.0457 97.7148C83.1385 92.2178 89.5345 92.9988 87.4712 94.3547C86.9272 94.6794 86.465 95.1246 86.12 95.656C85.7751 96.1875 85.5567 96.791 85.4817 97.4201C84.7301 102.622 88.8271 101.841 91.804 98.2159C93.042 96.7421 93.1009 99.9107 91.1408 103.109C89.4755 105.82 87.2207 106.793 86.9554 110.345C86.2186 119.025 84.4353 129.385 83.2416 137.019C73.456 141.75 63.4493 148.146 58.6892 158.285L58.7481 158.271ZM84.008 136.621C85.4469 129.128 86.4751 121.561 87.0881 113.955H109.946C110.8 118.892 116.931 119.556 117.919 127.219C106.156 128.369 94.6829 131.55 84.008 136.621V136.621ZM146.229 124.728C145.862 125.887 145.625 127.084 145.522 128.295C144.932 134.543 142.279 136.621 135.338 137.137C127.97 137.741 119.982 135.413 118.862 127.47C117.874 120.396 115.605 121.015 111.965 116.063C110.874 114.589 109.902 111.848 111.965 110.698C112.978 111.812 114.248 112.662 115.664 113.174C118.847 120.322 119.923 128.56 129.178 129.474C147.069 131.139 143.061 121.398 148.734 112.894C149.838 112.384 150.837 111.675 151.682 110.802C152.325 111.339 152.769 112.078 152.943 112.898C153.117 113.719 153.01 114.574 152.64 115.326C151.196 118.819 147.718 120.145 146.229 124.728V124.728ZM182.748 91.6725C183.249 92.7925 183.765 93.8978 184.222 95.0179C183.5 94.0894 179.963 90.2282 178.784 92.2915C178.18 93.3673 179.447 94.9737 179.963 95.9316C177.985 96.2818 176.217 97.3794 175.026 98.997C173.14 92.1441 179.801 88.725 182.748 91.6725ZM176.087 101.709C175.807 101.016 175.512 100.309 175.217 99.6159C176.511 98.1018 178.249 97.0342 180.184 96.5653C181.013 98.2769 181.551 100.115 181.776 102.003C182.174 105.776 179.285 103.079 177.885 101.782C177.34 101.222 176.426 100.986 176.013 101.709H176.087ZM207.993 186.316C212.871 179.478 213.078 170.65 210.248 162.928C206.24 152.007 196.705 144.359 186.668 139.009C184.739 130.097 183.487 121.052 182.925 111.951C182.925 110.566 178.239 109.623 176.78 104.185C176.514 103.197 175.969 100.603 177.752 102.46C179.536 104.317 182.571 106.027 182.439 101.959C182.262 97.1401 178.99 93.9273 179.285 92.8367C179.653 91.4662 182.38 94.0452 182.822 94.4873C183.974 95.7546 185.019 97.1151 185.946 98.5548C186.108 98.7906 186.506 98.5548 186.359 98.3338C186.015 97.7443 185.661 97.1548 185.298 96.5653C185.534 96.0642 182.881 91.3777 183.353 90.9356C183.824 90.4935 185.946 92.0262 186.418 92.4094C188.879 94.5463 188.997 95.9758 189.837 97.0811C189.875 97.0946 189.917 97.0946 189.955 97.0811C190.007 97.0854 190.059 97.0694 190.1 97.0366C190.142 97.0037 190.169 96.9564 190.176 96.9043C190.087 95.9611 189.542 95.4305 189.277 94.7821C189.012 94.1336 188.466 92.6746 188.835 92.1588C189.012 92.0115 190.029 92.7631 190.146 92.881C191.119 93.8122 191.93 94.8977 192.549 96.0937C197.058 103.801 195.702 108.768 196.469 109.519C207.654 122.12 219.606 140.571 222.023 157.224C223.659 168.778 220.019 182.248 207.92 186.316H207.993Z" fill="url(#paint2_linear_166_1651)"/>
<path d="M101.103 25.8264C101.442 25.7232 101.309 25.2369 101 25.1927C95.6355 25.2958 89.9322 25.1927 84.6415 25.34C84.2288 25.34 84.2878 25.9738 84.6415 26.0327C87.3531 26.4748 98.7451 26.5485 101.103 25.8264ZM241.801 104.642C243.805 103.772 253.591 99.8227 254.755 99.1595C254.777 99.1401 254.794 99.1163 254.806 99.0896C254.818 99.063 254.825 99.034 254.825 99.0047C254.825 98.9755 254.818 98.9465 254.806 98.9199C254.794 98.8932 254.777 98.8694 254.755 98.85C254.731 98.8143 254.698 98.7858 254.659 98.7676C254.62 98.7494 254.577 98.7423 254.534 98.7468C252.058 99.2627 244.041 103.08 241.55 104.318C241.417 104.421 241.594 104.73 241.801 104.642V104.642ZM142.957 70.0385L111.714 70.5101C113.055 85.6601 143.355 85.8959 142.957 70.0385ZM142.957 37.6163C142.957 37.6802 142.981 37.7418 143.025 37.7884C143.069 37.835 143.129 37.863 143.193 37.8668C148.189 37.9847 158.756 38.2942 162.749 37.7489C163.074 37.7489 162.971 37.2036 162.749 37.2036C157.105 37.2036 148.955 37.2036 143.267 37.3657C143.229 37.3567 143.19 37.3563 143.153 37.3648C143.115 37.3732 143.08 37.3902 143.05 37.4145C143.02 37.4387 142.996 37.4695 142.98 37.5045C142.964 37.5395 142.956 37.5778 142.957 37.6163V37.6163ZM100.219 15.5102C100.631 15.5102 100.455 14.9207 100.116 14.8618C89.9616 15.1565 78.9086 15.3776 69.0051 15.5987C68.972 15.604 68.9402 15.6159 68.9118 15.6337C68.8834 15.6515 68.8588 15.6749 68.8396 15.7023C68.8203 15.7298 68.8068 15.7609 68.7998 15.7937C68.7928 15.8266 68.7924 15.8604 68.7988 15.8934C68.8073 15.945 68.8318 15.9927 68.8688 16.0297C68.9058 16.0667 68.9535 16.0912 69.0051 16.0997C76.2117 16.6155 90.8606 15.8344 100.219 15.5102V15.5102ZM105.893 12.1354C106.232 12.1354 106.335 11.5459 105.893 11.5017C102.592 11.1038 70.0367 11.6343 67.7672 12.1354C67.5461 12.1354 67.5608 12.5775 67.7672 12.5775C76.1233 12.5628 96.1513 11.988 105.893 12.1354ZM41.8294 117.404V117.39V117.404ZM42.4484 117.655C43.5838 115.555 44.455 113.322 45.0422 111.008C45.3166 110.213 45.3793 109.36 45.2243 108.533C45.0693 107.706 44.7018 106.934 44.1579 106.292C44.6928 104.946 44.9679 103.511 44.9685 102.063C44.6737 99.6606 42.1242 99.8079 40.7536 101.65C35.2271 109.019 29.1258 120.809 29.3027 129.872C29.1995 130.3 29.4206 130.786 29.8037 130.432C36.3466 123.95 41.1864 115.951 43.8926 107.147C45.7348 109.888 42.8905 114.619 41.8294 117.39C41.6968 117.758 42.2568 117.979 42.4484 117.655V117.655ZM29.8627 129.268C29.9708 127.633 30.1973 126.007 30.5406 124.405L32.8102 126.04C31.8522 127.102 30.8648 128.207 29.8627 129.268ZM43.5537 105.688C42.5557 104.851 41.3572 104.287 40.0757 104.052C40.5681 103.153 41.1614 102.312 41.8442 101.547C42.5073 100.928 43.7747 100.677 44.1579 101.724C44.288 103.065 44.0803 104.418 43.5537 105.659V105.688ZM81.0603 30.616C80.4118 30.8813 76.6391 36.511 75.9464 37.4984C75.0889 36.3589 74.0995 35.3251 72.9989 34.4183C72.9375 34.3898 72.8678 34.3845 72.8027 34.4035C72.7377 34.4224 72.6817 34.4644 72.6452 34.5214C72.6237 34.5784 72.6237 34.6413 72.6452 34.6983C73.4856 36.0743 74.474 37.3542 75.5927 38.5152C75.6328 38.5595 75.6817 38.5949 75.7362 38.6191C75.7908 38.6433 75.8499 38.6558 75.9096 38.6558C75.9693 38.6558 76.0283 38.6433 76.0829 38.6191C76.1375 38.5949 76.1864 38.5595 76.2264 38.5152V38.4416L81.0603 31.8392C81.7382 30.8813 81.5466 30.3655 81.0603 30.616ZM169.484 22.8789C169.794 22.8789 169.853 22.2894 169.484 22.2452C160.289 21.7879 151.074 21.9208 141.896 22.6431C141.587 22.6431 141.616 23.1884 141.896 23.1737C148.852 23.1147 161.895 23.3358 169.484 22.8789Z" fill="url(#paint3_linear_166_1651)"/>
<path d="M81.0598 39.5467C81.6493 39.3109 80.4703 34.9192 80.3082 34.2265C80.3034 34.1956 80.2925 34.1659 80.2762 34.1391C80.2599 34.1123 80.2384 34.0891 80.2131 34.0706C80.1878 34.0521 80.1591 34.0388 80.1286 34.0314C80.0982 34.0241 80.0666 34.0227 80.0356 34.0276C80.0046 34.0324 79.9749 34.0433 79.9482 34.0596C79.9214 34.0759 79.8981 34.0974 79.8796 34.1227C79.8612 34.148 79.8479 34.1767 79.8405 34.2072C79.8331 34.2376 79.8318 34.2693 79.8366 34.3002C80.0135 35.8771 80.1903 37.4688 80.4851 39.0162C78.0239 39.2078 75.7986 39.193 73.3964 39.2962C72.9543 37.3803 72.5711 34.875 71.9227 32.9739C73.7763 33.1297 75.6398 33.1297 77.4934 32.9739C78.7166 32.9739 78.6282 32.2075 77.5818 32.2223C76.9628 32.2223 71.6869 32.1191 71.6869 32.7528C70.9942 32.7528 72.4532 38.9278 72.5416 39.3404C72.5569 39.4139 72.5951 39.4806 72.6507 39.5309C72.7063 39.5813 72.7765 39.6126 72.8511 39.6204C73.028 40.3868 80.7798 40.2689 81.0598 39.5467ZM170.309 34.3739C170.296 34.3166 170.265 34.2653 170.219 34.228C170.174 34.1906 170.117 34.1694 170.059 34.1676C161.128 33.9318 151.578 34.3592 142.529 34.3444C142.264 34.3444 142.249 34.7866 142.529 34.816C150.458 35.3466 162.72 35.6708 170.118 34.6981C170.184 34.6776 170.241 34.633 170.276 34.573C170.312 34.5131 170.323 34.4421 170.309 34.3739V34.3739ZM73.0574 28.8916C75.1247 28.9493 77.1935 28.8557 79.2471 28.6116C80.5293 28.9358 78.5692 20.8892 78.3334 20.5208C78.3024 20.4514 78.2497 20.3938 78.1834 20.3566C78.117 20.3194 78.0404 20.3047 77.965 20.3145C76.6386 20.3145 70.4784 20.3145 69.6089 20.5061C68.5478 19.6513 70.0952 26.9168 70.3163 27.7863C70.7437 29.2453 71.6869 28.8916 73.0574 28.8916ZM69.7858 21.0071C72.505 21.3392 75.252 21.3787 77.9797 21.125L78.9229 27.9337L71.2005 28.3316C71.2595 27.8305 69.9626 21.9798 69.7858 21.0071ZM163.324 25.9736C163.402 25.9736 163.477 25.9426 163.532 25.8873C163.587 25.832 163.619 25.757 163.619 25.6789C163.619 25.6007 163.587 25.5257 163.532 25.4704C163.477 25.4152 163.402 25.3841 163.324 25.3841C161.496 25.0157 145.786 25.5757 142.529 25.8557C142.279 25.8557 142.279 26.2831 142.529 26.2978C144.298 26.3715 161.57 26.4157 163.324 25.9736ZM39.5742 72.7205C39.8542 72.7205 41.9321 71.5415 42.4185 73.4574C43.0964 76.0806 45.7491 74.5037 46.1765 72.4995C46.7218 70.0236 44.3638 68.0783 41.5784 68.0783C35.9193 68.0783 37.2162 72.9858 39.5742 72.7205ZM41.5784 68.653C44.7617 68.7562 46.7218 71.7626 44.7912 73.5311C43.1406 75.0048 43.3175 72.8826 42.5216 72.0573C40.93 70.5836 39.6626 72.3668 38.7636 71.6152C36.9214 70.1415 40.4437 68.5646 41.5784 68.653ZM76.0933 44.6459C73.7796 44.6459 73.6912 44.2627 73.9859 46.5175C74.0743 47.1512 74.5312 51.6314 75.2975 51.6756C75.4596 52.383 82.0767 52.1324 82.9167 51.8819C84.0515 51.8819 82.9167 48.3891 82.9167 47.9912C81.9441 42.8626 83.1525 44.4543 76.0933 44.6459ZM75.666 51.3366C75.2975 49.4797 75.0175 47.0186 74.487 45.2501C76.9 45.4859 79.3337 45.3967 81.723 44.9848C81.873 47.0367 82.1934 49.0726 82.6809 51.0713C80.3819 51.1745 77.9945 51.2924 75.666 51.3366ZM172.623 11.2657C169.911 11.0152 130.857 11.2657 125.906 11.6489C125.842 11.6598 125.784 11.695 125.746 11.7473C125.707 11.7995 125.691 11.8646 125.699 11.9289C125.71 11.9797 125.735 12.0263 125.772 12.063C125.808 12.0997 125.855 12.1248 125.906 12.1352C130.106 12.3563 169.617 12.2531 172.623 11.9142C172.709 11.9142 172.792 11.88 172.852 11.8192C172.913 11.7584 172.947 11.6759 172.947 11.59C172.947 11.504 172.913 11.4215 172.852 11.3607C172.792 11.2999 172.709 11.2657 172.623 11.2657V11.2657ZM106.113 22.0977C106.452 22.024 106.334 21.5671 106.04 21.5082L83.6536 22.0682C83.6211 22.0717 83.5896 22.0819 83.5613 22.0982C83.5329 22.1145 83.5082 22.1365 83.4888 22.1628C83.4694 22.1891 83.4557 22.2192 83.4485 22.2511C83.4414 22.2831 83.441 22.3161 83.4473 22.3482C83.4558 22.3999 83.4803 22.4475 83.5173 22.4845C83.5543 22.5215 83.602 22.546 83.6536 22.5545C89.2685 22.9672 101.235 23.0851 106.113 22.0977ZM194.876 63.5244C194.98 64.6445 196.1 75.8154 196.512 76.6259C199.46 82.3735 210.306 82.5209 210.542 74.0174C210.955 70.4804 212.384 60.3264 211.824 57.8063C211.987 56.981 212.841 53.3851 213.003 51.484C213.003 51.1745 213.593 42.7595 212.414 44.0416C210.84 46.1367 209.445 48.36 208.243 50.6882C208.037 51.5872 207.831 52.4714 207.61 53.3556C206.958 53.1098 206.281 52.9368 205.591 52.8398C205.591 52.2356 205.148 49.2881 204.942 48.1091C203.925 46.1343 202.879 44.3658 201.995 42.3173C200.742 39.2372 200.712 39.1783 200.359 42.5679C199.768 46.0208 199.768 49.549 200.359 53.0019C193.683 54.3872 194.375 58.3221 194.862 63.5244H194.876ZM210.999 47.3133C211.18 47.4877 211.395 47.6213 211.632 47.7052C211.868 47.7891 212.12 47.8213 212.37 47.7997V51.5135C211.749 51.5737 211.122 51.5082 210.527 51.3208C209.932 51.1334 209.381 50.8281 208.906 50.4229C209.629 49.406 210.38 48.3597 210.999 47.3133ZM208.877 51.1892C209.853 51.8833 211.025 52.2496 212.222 52.2356C211.736 54.9767 211.25 57.7032 210.867 60.459C210.365 62.257 207.919 62.9054 206.327 63.1265C207.3 59.2358 208.037 55.0504 208.877 51.145V51.1892ZM205.929 62.0654C205.858 62.4354 205.809 62.8095 205.782 63.1854L202.186 63.2739L200.712 49.3913C201.379 49.5925 202.084 49.6278 202.768 49.4943C203.451 49.3607 204.091 49.0623 204.633 48.6249C204.633 48.6249 205.591 61.8443 205.929 62.0212V62.0654ZM200.889 44.6753C201.115 44.7343 201.351 44.7464 201.581 44.7109C201.812 44.6754 202.033 44.5931 202.23 44.469L204.249 48.0944C203.72 48.4888 203.107 48.7552 202.457 48.8728C201.808 48.9904 201.14 48.956 200.506 48.7723C200.481 47.382 200.609 45.9931 200.889 44.6311V44.6753ZM211.102 61.6528C210.837 65.3666 210.365 73.2069 209.408 76.7143C207.713 81.2682 200.329 81.3419 197.072 76.7143C196.453 71.6005 195.834 66.3982 195.23 61.358C197.986 65.3518 208.7 64.8655 211.102 61.6085V61.6528Z" fill="url(#paint4_linear_166_1651)"/>
<path d="M12.988 77.8931C15.231 79.0645 17.5991 79.9791 20.0472 80.6195C15.346 87.0892 28.8012 96.3148 41.1069 91.3925C46.7513 89.1377 52.3957 81.9754 46.8692 77.0089C52.7641 72.2487 54.8421 65.3811 54.5916 57.8503C54.2084 46.2373 49.0798 37.6896 37.3341 34.9337C31.5474 33.5795 25.4836 34.0479 19.9735 36.2748L17.6892 32.3252C18.4113 31.942 19.1629 31.5736 19.8998 31.2494C21.8451 30.5862 21.2557 29.1566 20.1061 29.584C-2.4715 37.8222 -7.68852 67.518 12.988 77.8931ZM20.224 79.5879C19.8114 78.1142 20.9167 76.6404 20.4009 75.034C19.2219 71.2171 14.2849 73.4277 13.0322 70.8486C11.6616 68.0338 15.3165 67.5475 16.0534 65.5285C16.1837 65.175 16.2169 64.7931 16.1495 64.4224C16.0821 64.0518 15.9166 63.706 15.6702 63.421C13.548 60.7683 8.64047 63.5684 10.0405 57.3787C11.1016 52.707 15.6112 50.4963 18.8829 52.5596C22.1546 54.6228 24.1147 56.0081 28.2559 53.5912C35.153 49.5384 34.2982 58.0124 32.1908 60.5767C31.0707 61.962 29.037 61.8883 27.4748 62.4778C22.3757 64.3937 22.4052 67.8275 26.4432 68.6675C28.0054 68.9917 30.0096 68.8444 31.2328 70.0233C34.5488 73.2508 27.6959 80.1479 25.5295 81.2827C24.3652 81.0469 20.8135 80.3542 20.224 79.5879V79.5879ZM38.9257 36.2306C47.6061 38.9275 52.1894 45.2056 53.4273 54.1807C54.0157 58.054 53.8707 62.0034 52.9999 65.8232C52.6462 66.3095 47.665 67.6801 46.0586 65.6169C45.4385 64.783 45.0244 63.8142 44.8502 62.7897C44.676 61.7651 44.7467 60.7139 45.0565 59.7219C46.0144 57.2461 49.2714 55.0649 48.2692 52.5301C46.8839 49.0226 42.8312 53.8123 41.1216 52.8248C38.5573 51.3511 43.3617 48.5215 37.8794 47.5047C35.8604 47.1362 34.2098 47.9615 32.7213 45.7362C29.317 40.637 38.1741 36.2158 38.9257 36.1864V36.2306ZM22.1104 42.7592C22.174 42.8597 22.2703 42.9351 22.3831 42.9727C22.4959 43.0103 22.6182 43.0078 22.7294 42.9656C22.857 42.9131 22.9592 42.8129 23.0143 42.6864C23.0693 42.5598 23.0728 42.4168 23.0241 42.2876L20.3419 37.0559C25.8081 34.864 31.8263 34.4515 37.5404 35.8769C30.1718 38.3085 29.3023 46.6204 34.593 48.0499C35.713 48.3594 40.7237 47.9173 39.8542 50.0542C39.6777 50.4009 39.5787 50.7818 39.5642 51.1705C39.5496 51.5593 39.6197 51.9465 39.7697 52.3055C39.9198 52.6644 40.1461 52.9864 40.4329 53.2491C40.7198 53.5118 41.0604 53.709 41.4311 53.827C43.4943 54.1954 45.7049 51.0858 47.2229 52.3533C49.8756 54.5639 42.949 57.9829 44.128 62.9052C45.0123 66.678 46.5744 67.8717 50.4062 67.3264C51.2455 67.2542 52.0596 67.0029 52.7936 66.5895C49.6251 77.6868 37.7762 82.8006 26.9443 81.4595C29.1254 79.4553 32.515 75.4762 32.8392 72.6171C33.3403 67.5475 27.519 68.5643 25.3821 67.4443C22.4346 65.9706 26.6495 63.4063 29.3465 62.8168C30.2302 62.6713 31.0856 62.3878 31.8813 61.9767C36.3025 59.2651 35.0793 48.3594 28.6685 52.3827C23.1862 55.8165 21.4915 52.8985 18.9419 51.5869C14.8596 49.5089 9.25944 52.7806 8.97943 58.9556C8.81732 63.1557 12.2806 62.2568 14.2996 63.3768C14.6615 63.5125 14.9636 63.772 15.1524 64.1092C15.3412 64.4464 15.4046 64.8395 15.3312 65.219C14.8596 66.6927 12.7227 66.9874 12.1332 68.7707C11.9001 69.4662 11.9086 70.22 12.1574 70.9101C12.4061 71.6002 12.8806 72.1861 13.5038 72.5729C15.4344 73.693 18.8535 72.7203 19.664 75.3877C20.0619 76.6846 19.2808 78.011 19.3693 79.3226C15.6092 77.9712 12.2983 75.6022 9.80549 72.4797C7.31268 69.3572 5.7359 65.6038 5.25088 61.6378C3.92452 51.6164 10.0405 41.875 19.0303 37.6159C19.9588 39.3254 21.123 41.0939 22.1104 42.7592V42.7592ZM8.84679 38.8244C11.0591 36.5302 13.6086 34.5871 16.4071 33.062C17.2285 34.3223 17.9812 35.626 18.6619 36.9674C14.0366 39.1162 10.1872 42.6402 7.63925 47.0582C5.09131 51.4762 3.96902 56.5729 4.42559 61.6525C4.73281 64.564 5.64537 67.379 7.1047 69.917C8.56403 72.455 10.5379 74.6598 12.8996 76.3899C-1.18935 68.5643 -1.77884 50.1132 8.84679 38.8244ZM166.139 49.2142C164.871 48.9342 145.919 48.8458 143.237 49.2142C143.17 49.2142 143.107 49.2406 143.06 49.2876C143.013 49.3346 142.986 49.3983 142.986 49.4647C142.986 49.5312 143.013 49.5949 143.06 49.6419C143.107 49.6889 143.17 49.7153 143.237 49.7153C144.254 49.8626 164.061 50.2016 166.139 49.7153C166.207 49.7 166.269 49.6617 166.313 49.6068C166.357 49.5519 166.381 49.4836 166.381 49.4131C166.381 49.3427 166.357 49.2744 166.313 49.2195C166.269 49.1646 166.207 49.1263 166.139 49.111V49.2142ZM172.431 15.3183C158.21 15.4804 139.832 14.994 127.011 15.3183C126.657 15.3183 126.687 15.8193 127.011 15.8488C132.39 16.4383 168.099 16.3941 172.431 15.8488C172.474 15.8452 172.515 15.8331 172.552 15.8131C172.589 15.7931 172.622 15.7657 172.648 15.7325C172.674 15.6994 172.693 15.6612 172.704 15.6204C172.715 15.5796 172.718 15.5369 172.712 15.4951C172.688 15.441 172.649 15.3952 172.599 15.3636C172.549 15.3321 172.491 15.3163 172.431 15.3183V15.3183ZM170.855 46.0162C162.233 45.8246 151.46 46.3551 142.279 46.1193C142.014 46.1193 141.955 46.5025 142.279 46.532C147.923 47.092 165.593 47.652 170.914 46.6204C171.194 46.5467 171.223 46.0162 170.855 46.0162V46.0162Z" fill="url(#paint5_linear_166_1651)"/>
<defs>
<linearGradient id="paint0_linear_166_1651" x1="86.144" y1="17.8994" x2="307.325" y2="156.848" gradientUnits="userSpaceOnUse">
<stop stop-color="#467EEB"/>
<stop offset="1" stop-color="#37DE7A"/>
</linearGradient>
<linearGradient id="paint1_linear_166_1651" x1="127.245" y1="20.3496" x2="306.553" y2="106.398" gradientUnits="userSpaceOnUse">
<stop stop-color="#467EEB"/>
<stop offset="1" stop-color="#37DE7A"/>
</linearGradient>
<linearGradient id="paint2_linear_166_1651" x1="0.0561523" y1="0" x2="395.727" y2="187.823" gradientUnits="userSpaceOnUse">
<stop stop-color="#467EEB"/>
<stop offset="1" stop-color="#37DE7A"/>
</linearGradient>
<linearGradient id="paint3_linear_166_1651" x1="29.2773" y1="11.3623" x2="306.479" y2="188.675" gradientUnits="userSpaceOnUse">
<stop stop-color="#467EEB"/>
<stop offset="1" stop-color="#37DE7A"/>
</linearGradient>
<linearGradient id="paint4_linear_166_1651" x1="37.564" y1="11.165" x2="213.497" y2="161.325" gradientUnits="userSpaceOnUse">
<stop stop-color="#467EEB"/>
<stop offset="1" stop-color="#37DE7A"/>
</linearGradient>
<linearGradient id="paint5_linear_166_1651" x1="0" y1="15.2041" x2="190.969" y2="158.918" gradientUnits="userSpaceOnUse">
<stop stop-color="#467EEB"/>
<stop offset="1" stop-color="#37DE7A"/>
</linearGradient>
</defs>
</svg>
